<?xml version="1.0" encoding="UTF-8"?>
<svg width="45px" height="45px" viewBox="0 0 45 45" version="1.1" xmlns="http://www.w3.org/2000/svg" xmlns:xlink="http://www.w3.org/1999/xlink">
    <title>instagram</title>
    <g id="Page-1" stroke="none" stroke-width="1" fill="none" fill-rule="evenodd">
        <g id="Twillo-Home-Revised" transform="translate(-1280.000000, -6104.000000)">
            <g id="footer-purp" transform="translate(0.000000, 5916.000000)">
                <g id="instagram" transform="translate(1280.000000, 188.000000)">
                    <circle id="Oval-Copy" fill="#F7F4FE" cx="22.5" cy="22.5" r="22.5"></circle>
                    <path d="M23.0029002,16.3339284 C19.3138873,16.3339284 16.3383157,19.310164 16.3383157,23 C16.3383157,26.689836 19.3138873,29.6660716 23.0029002,29.6660716 C26.691913,29.6660716 29.6674847,26.689836 29.6674847,23 C29.6674847,19.310164 26.691913,16.3339284 23.0029002,16.3339284 Z M23.0029002,27.3338168 C20.6189626,27.3338168 18.6700502,25.3902711 18.6700502,23 C18.6700502,20.6097289 20.6131623,18.6661832 23.0029002,18.6661832 C25.392638,18.6661832 27.3357501,20.6097289 27.3357501,23 C27.3357501,25.3902711 25.3868377,27.3338168 23.0029002,27.3338168 L23.0029002,27.3338168 Z M31.4945901,16.0612518 C31.4945901,16.9256945 30.7985499,17.6160884 29.9401004,17.6160884 C29.0758505,17.6160884 28.3856107,16.9198929 28.3856107,16.0612518 C28.3856107,15.2026107 29.0816509,14.5064153 29.9401004,14.5064153 C30.7985499,14.5064153 31.4945901,15.2026107 31.4945901,16.0612518 Z M35.9086447,17.6392949 C35.810039,15.5565101 35.3344116,13.7115921 33.8089236,12.1915653 C32.2892359,10.6715385 30.4447295,10.195805 28.3624094,10.0913757 C26.2162856,9.96954145 19.7837144,9.96954145 17.6375906,10.0913757 C15.5610708,10.1900033 13.7165644,10.6657369 12.1910764,12.1857637 C10.6655884,13.7057905 10.1957613,15.5507085 10.0913553,17.6334933 C9.96954824,19.780096 9.96954824,26.2141024 10.0913553,28.3607051 C10.189961,30.4434899 10.6655884,32.2884079 12.1910764,33.8084347 C13.7165644,35.3284615 15.5552705,35.804195 17.6375906,35.9086243 C19.7837144,36.0304586 26.2162856,36.0304586 28.3624094,35.9086243 C30.4447295,35.8099967 32.2892359,35.3342631 33.8089236,33.8084347 C35.3286113,32.2884079 35.8042387,30.4434899 35.9086447,28.3607051 C36.0304518,26.2141024 36.0304518,19.7858976 35.9086447,17.6392949 Z M33.1360848,30.6639518 C32.6836587,31.8010711 31.8078081,32.677117 30.6651422,33.1354457 C28.9540435,33.8142363 24.8938093,33.6575923 23.0029002,33.6575923 C21.1119911,33.6575923 17.0459565,33.8084347 15.3406581,33.1354457 C14.2037925,32.6829187 13.327942,31.8068727 12.8697156,30.6639518 C12.1910764,28.9524713 12.3476854,24.891331 12.3476854,23 C12.3476854,21.108669 12.1968767,17.0417271 12.8697156,15.3360482 C13.3221417,14.1989289 14.1979922,13.322883 15.3406581,12.8645543 C17.0517568,12.1857637 21.1119911,12.3424077 23.0029002,12.3424077 C24.8938093,12.3424077 28.9598438,12.1915653 30.6651422,12.8645543 C31.8020078,13.3170813 32.6778583,14.1931273 33.1360848,15.3360482 C33.8147239,17.0475287 33.6581149,21.108669 33.6581149,23 C33.6581149,24.891331 33.8147239,28.9582729 33.1360848,30.6639518 Z" id="Shape" fill="#371F71" fill-rule="nonzero"></path>
                </g>
            </g>
        </g>
    </g>
</svg>